<?xml version="1.0" encoding="utf-8"?>
<!-- Generator: Adobe Illustrator 23.0.1, SVG Export Plug-In . SVG Version: 6.00 Build 0)  -->
<svg version="1.1" id="Capa_1" xmlns="http://www.w3.org/2000/svg" xmlns:xlink="http://www.w3.org/1999/xlink" x="0px" y="0px"
	 viewBox="0 0 512 512" style="enable-background:new 0 0 512 512;" xml:space="preserve">
<style type="text/css">
	.st0{fill:#FFFFFF;}
	.st1{font-family:'Impact';}
	.st2{font-size:45.131px;}
</style>
<g>
	<g>
		<g>
			<path class="st0" d="M432.5,182.4L261.9,34c-2.8-2.4-7-2.4-9.7,0L81.5,182.4c-2.3,2-3.2,5.3-2.1,8.2c1.1,2.9,3.9,4.8,7,4.8h37.1
				v155.7c0,4.1,3.3,7.4,7.4,7.4h252.2c4.1,0,7.4-3.3,7.4-7.4V195.4h37.1c3.1,0,5.9-1.9,7-4.8C435.6,187.7,434.8,184.4,432.5,182.4z
				 M383.1,180.6c-4.1,0-7.4,3.3-7.4,7.4v155.7H138.3V188c0-4.1-3.3-7.4-7.4-7.4h-24.7L257,49.5l150.8,131.1H383.1z"/>
			<circle class="st0" cx="286.7" cy="195.4" r="14.8"/>
			<path class="st0" d="M227.3,202.8c0,5.6,0.9,11.1,2.7,16.4L185,264.3c-1.4,1.4-2.2,3.3-2.2,5.2v22.2c0,4.1,3.3,7.4,7.4,7.4h22.2
				c2,0,3.9-0.8,5.2-2.2l45.1-45.1c5.3,1.8,10.8,2.7,16.4,2.7c28.6,0,51.9-23.3,51.9-51.9s-23.3-51.9-51.9-51.9
				S227.3,174.2,227.3,202.8z M279.3,165.7c20.5,0,37.1,16.6,37.1,37.1s-16.6,37.1-37.1,37.1c-5.2,0-10.3-1.1-15.2-3.3
				c-2.8-1.3-6.1-0.7-8.3,1.5l-46.3,46.3h-11.8v-11.8l46.3-46.3c2.2-2.2,2.8-5.5,1.5-8.3c-2.2-4.9-3.3-10-3.3-15.2
				C242.2,182.4,258.8,165.7,279.3,165.7z"/>
		</g>
	</g>
</g>
<text transform="matrix(1.24 0 0 1 80.582 408.9769)" class="st0 st1 st2">BR ’ IMMOBiLIER</text>
</svg>
